<svg id="bcfd89cd-c5fc-4ccb-b74b-ab9566f3417b" xmlns="http://www.w3.org/2000/svg" viewBox="0 0 844 624.59"><defs><style>.cls-1{fill:#f0f0f0;}.cls-2{fill:#e6e6e6;}.cls-3{fill:#ccc;}.cls-4{fill:#3f3d56;}.cls-5{fill:#fff;}.cls-6{fill:#ffb8b8;}.cls-7{fill:#8ba14d;}.cls-8{fill:#2f2e41;}.cls-9{fill:#a0616a;}.cls-10{fill:#e4e4e4;}</style></defs><circle class="cls-1" cx="83" cy="83" r="83"/><circle class="cls-1" cx="761" cy="269" r="83"/><path class="cls-2" d="M501.72,617.87l-14.6-6.14-10-73.15H343.81L333,611.43,319.9,618a3.1,3.1,0,0,0,1.39,5.87H500.51a3.1,3.1,0,0,0,1.21-6Z"/><path class="cls-3" d="M738.61,548.31H83.78a13,13,0,0,1-13-13V443H751.55v92.33A13,13,0,0,1,738.61,548.31Z"/><path class="cls-4" d="M752.24,486.64h-682V91.54A15.65,15.65,0,0,1,85.88,75.9H736.6a15.66,15.66,0,0,1,15.64,15.64Z"/><path class="cls-5" d="M711.5,458H111A12.07,12.07,0,0,1,98.91,445.9V116.63A12.07,12.07,0,0,1,111,104.57H711.5a12.07,12.07,0,0,1,12.06,12.06V445.9A12.07,12.07,0,0,1,711.5,458Z"/><path class="cls-3" d="M579.66,624.59H242.21a1.57,1.57,0,0,1-1.54-1.13,1.52,1.52,0,0,1,1.09-1.87,1.67,1.67,0,0,1,.39-.05H579.53a1.62,1.62,0,0,1,1.62,1.19,1.54,1.54,0,0,1-1.16,1.83A1.84,1.84,0,0,1,579.66,624.59Z"/><path class="cls-1" d="M643.43,399.34H516.91a1.21,1.21,0,0,1-1.31-1.07V296.21a1.21,1.21,0,0,1,1.31-1.08H643.43a1.21,1.21,0,0,1,1.31,1.08V398.27A1.21,1.21,0,0,1,643.43,399.34Z"/><path class="cls-5" d="M629.68,306.42h-99a1.3,1.3,0,0,0-1.3,1.3v76.73a1.3,1.3,0,0,0,1.3,1.3h99a1.3,1.3,0,0,0,1.3-1.3V307.72A1.3,1.3,0,0,0,629.68,306.42Z"/><circle class="cls-6" cx="577.72" cy="345.82" r="12.59"/><polygon class="cls-7" points="596.14 385.75 568.23 385.75 569.14 365.23 569.36 365 572.49 361.69 582.46 361.69 586.15 365.27 586.45 365.56 594.32 373.1 596.14 385.75"/><path class="cls-8" d="M573,385.75H551.91l-.08-7.4,1.22-.75h0l13.46-8.17,2.82-4.59,0,.16.83,9.67S571.56,379.11,573,385.75Z"/><path class="cls-8" d="M608.52,385.75H586.15c.34-13.51-1.48-20.91-.54-20.91l.54.43,6.6,5.21,8.69,3.18h0l6,2.2,1.05.39v.49C608.49,377.93,608.49,381.17,608.52,385.75Z"/><path class="cls-8" d="M565.81,349.76s1.07-1.88.82-8.15,9.31-2.73,17.3-3.33,6.29,10.48,6.29,10.48.58-.66,1.81-6-1.57-10.67-1.57-10.67c-.82-5.62-5.27-3.81-5.27-3.81a2.31,2.31,0,0,1,1.73,2.61c-1.81-3.18-6.25-1.38-6.25-1.38-5.93-3.72-11.94,1.18-11.94,1.18-7.16,1.63-3,7.32-3,7.32C558.57,341.64,565.81,349.76,565.81,349.76Z"/><path class="cls-8" d="M554.73,385.75h-8.68a26.45,26.45,0,0,0,0-3.21c-.52-2.06,6.77-4.85,7-4.94h0l1.39.75Z"/><path class="cls-8" d="M610.09,385.75H601l-1.14-11.23,1.28-.93.32.07h0a25.48,25.48,0,0,1,6,2.2,3.88,3.88,0,0,1,1.05.88,1.09,1.09,0,0,1,.25.77C608.69,377.93,609.22,381,610.09,385.75Z"/><path class="cls-1" d="M643,269.13H516.49a1.22,1.22,0,0,1-1.3-1.08V166a1.22,1.22,0,0,1,1.3-1.08H643a1.21,1.21,0,0,1,1.3,1.08v102.1A1.21,1.21,0,0,1,643,269.13Z"/><path class="cls-5" d="M629.27,176.17h-99a1.31,1.31,0,0,0-1.31,1.3v76.72a1.32,1.32,0,0,0,1.31,1.31h99a1.31,1.31,0,0,0,1.3-1.31V177.47A1.3,1.3,0,0,0,629.27,176.17Z"/><path class="cls-7" d="M604.13,255.5c.56-2,1-3.75,1.22-5a3.63,3.63,0,0,0,0-1.14c-.84-5.94-15.9-10.95-17.83-11.57l-.47-5.17-19-2-2.4,6.61-6.81,2.55a3.32,3.32,0,0,0-.7.36,3.37,3.37,0,0,0-1.38,3.59l2.9,11.79Z"/><path class="cls-7" d="M564.83,255.5H550.12c.53-3.29,1-6.19,1.3-8,1.13-6.72,6-7.29,6.79-7.34h3.2Z"/><path class="cls-7" d="M604.13,255.5h3.57a11.64,11.64,0,0,0-2.33-6.12,7.39,7.39,0,0,0-2.55-2.13l-.27-.11-3.14,8.36Z"/><circle id="e3e8db5d-807d-4643-8c1f-aca9b0b4bfae" class="cls-9" cx="576.85" cy="213.68" r="13.65"/><path id="b5b1c5aa-1c33-4801-a876-6607b8c48426" class="cls-8" d="M567.69,207c1.42,1.68,3.81,2.15,6,2.34a56.79,56.79,0,0,0,15.38-1.26c.31,3-.54,6.3,1.24,8.79a40.81,40.81,0,0,0,1.45-9.25,8.91,8.91,0,0,0-.51-4,3.64,3.64,0,0,0-3.11-2.28,7.8,7.8,0,0,1,3.47-1.49l-4.33-2.17,1.11-1.15-7.85-.48,2.28-1.44a49.57,49.57,0,0,0-10.33-.33,8.87,8.87,0,0,0-4.57,1.27c-1.29.93-2,2.77-1.24,4.13a6,6,0,0,0-4.57,3.63,9.65,9.65,0,0,0-.34,4.65,32.28,32.28,0,0,0,1.73,7.31"/><path class="cls-10" d="M177.74,396.49V165.63a2.76,2.76,0,0,1,3-2.44H471a2.77,2.77,0,0,1,3,2.44V396.49a2.77,2.77,0,0,1-3,2.44H180.73A2.76,2.76,0,0,1,177.74,396.49Z"/><path class="cls-5" d="M209.29,192.08v176a3,3,0,0,0,3,3H439.45a3,3,0,0,0,3-3v-176a3,3,0,0,0-3-3H212.28A3,3,0,0,0,209.29,192.08Z"/><path class="cls-7" d="M303.51,371.1h45.72l-2.85-42.77-16.49,3.81-16-6.17-.43-.16h0s0,0,0,0C313.13,326.85,308.09,347,303.51,371.1Z"/><polygon class="cls-8" points="275.96 335.31 280.23 371.1 318.76 371.1 313.85 325.97 313.8 325.53 313.42 325.81 313.38 325.84 303.88 332.77 275.96 335.31"/><path class="cls-8" d="M342.47,371.1H377l.49-28.17-25.39-8.43-5.7-6.17S344.58,346.9,342.47,371.1Z"/><path class="cls-8" d="M259.34,371.1h28.6l-1.83-25.64L276,335.31S267.93,352.16,259.34,371.1Z"/><path class="cls-8" d="M368.84,371.1h15.08c-.06-8.21-.1-13.89-.1-15.49a14.94,14.94,0,0,0-6.35-12.68l-7.62,2.53Z"/><path class="cls-8" d="M371.19,314.88H291.26V281.19c0-11.55,8.13-25.43,18.13-30.95,14-7.74,29.38-7.88,42.09-.37a40.18,40.18,0,0,1,19.71,34.44Z"/><circle class="cls-6" cx="332.81" cy="285.18" r="28.87"/><path class="cls-8" d="M360.25,286.67H319.06l-.1-.47a65,65,0,0,0-1.84-7.27,81.75,81.75,0,0,0-4.52,7.43l-.17.31h-8a3.56,3.56,0,0,1-2.61-1.16c-.21-.24-.72-.8,1.39-26.55a3.53,3.53,0,0,1,2-2.87c18.07-8.44,36.39-8.22,54.44.66H360l.12.45c3.56,27.4,3,28,2.83,28.25A3.55,3.55,0,0,1,360.25,286.67Z"/></svg>